<?xml version="1.0" encoding="utf-8"?>
<svg version="1.0" width="1640.000000pt" height="624.000000pt" viewBox="0 0 1640.000000 624.000000" preserveAspectRatio="xMidYMid meet" xmlns="http://www.w3.org/2000/svg">
  <g transform="translate(0.000000,624.000000) scale(0.100000,-0.100000)" fill="#000000" stroke="none">
    <path d="M2975 4908 c-33 -19 -44 -41 -45 -85 0 -98 134 -128 176 -39 30 61 -4 124 -71 132 -22 2 -49 -1 -60 -8z" style="fill: rgb(17, 114, 136);"/>
    <path d="M3549 4751 c-38 -39 -39 -80 0 -123 24 -27 36 -33 69 -33 58 0 92 34 92 90 0 89 -98 129 -161 66z" style="fill: rgb(181, 16, 16);"/>
    <path d="M2474 4710 c-58 -23 -73 -113 -28 -155 53 -49 144 -22 159 46 17 77 -57 139 -131 109z" style="fill: rgb(30, 110, 202);"/>
    <path d="M4005 4405 c-19 -18 -25 -35 -25 -69 0 -37 5 -48 31 -70 35 -29 67 -33 109 -11 57 30 61 122 6 160 -33 24 -93 19 -121 -10z" style="fill: rgb(215, 146, 112);"/>
    <path d="M2073 4306 c-37 -17 -53 -43 -53 -86 0 -44 16 -69 53 -85 67 -28 132 14 132 86 0 69 -68 113 -132 85z" style="fill: rgb(36, 212, 62);"/>
    <path d="M4900 4000 c-168 -36 -263 -160 -231 -304 24 -109 107 -169 310 -225 62 -18 126 -38 141 -46 84 -44 94 -145 18 -190 -38 -22 -140 -31 -195 -16 -53 14 -101 55 -120 99 -11 27 -18 33 -36 29 -12 -3 -55 -9 -94 -13 -84 -8 -85 -10 -48 -89 60 -126 212 -194 405 -182 167 11 279 75 320 182 19 50 16 145 -7 195 -42 96 -119 140 -352 201 -108 28 -151 63 -151 121 0 56 39 93 107 103 92 12 171 -29 189 -98 7 -31 -7 -30 151 -11 51 6 53 7 47 32 -20 89 -103 176 -192 202 -51 16 -207 21 -262 10z" style="fill: rgb(215, 146, 112);"/>
    <path d="M 13541 3995 C 13365 3945 13280 3793 13280 3530 C 13281 3308 13356 3154 13494 3094 C 13557 3067 13558 3066 13591 2991 C 13659 2837 13751 2781 13916 2794 C 14032 2803 14030 2801 14030 2876 L 14030 2940 L 13960 2940 C 13909 2940 13878 2946 13851 2960 C 13813 2979 13770 3033 13770 3061 C 13770 3069 13793 3086 13820 3099 C 13905 3140 13971 3230 14001 3350 C 14010 3384 14015 3458 14015 3545 C 14015 3662 14011 3697 13992 3757 C 13957 3868 13871 3964 13782 3990 C 13718 4009 13600 4011 13541 3995 Z M 13740 3812 C 13804 3749 13831 3602 13811 3440 C 13793 3298 13736 3220 13650 3220 C 13564 3220 13507 3298 13489 3440 C 13471 3586 13495 3739 13547 3800 C 13579 3839 13602 3849 13659 3849 C 13696 3850 13708 3845 13740 3812 Z" style="fill: rgb(220, 230, 20);"/>
    <path d="M8694 3905 l-28 -95 -63 0 -63 0 0 -65 0 -65 54 0 54 0 4 -232 c4 -250 9 -279 59 -325 60 -55 188 -75 342 -53 l87 12 0 65 c0 57 -2 64 -17 59 -9 -4 -58 -9 -108 -13 -112 -7 -148 7 -164 65 -6 20 -11 124 -11 230 l0 192 135 0 135 0 0 65 0 65 -135 0 -135 0 0 95 0 95 -59 0 -58 0 -29 -95z" style="fill: rgb(17, 114, 135);"/>
    <path d="M9480 3531 l0 -461 225 0 c298 0 365 15 437 100 76 88 78 223 3 302 -32 33 -97 67 -131 68 -39 0 -34 13 15 35 69 32 104 82 109 156 6 88 -4 125 -49 174 -66 71 -97 78 -371 83 l-238 4 0 -461z m436 276 c18 -21 24 -40 24 -77 0 -37 -6 -56 -24 -77 -23 -27 -29 -28 -129 -31 l-104 -4 0 112 0 112 105 -4 c99 -3 105 -4 128 -31z m19 -353 c84 -40 85 -184 1 -219 -24 -10 -71 -15 -144 -15 l-108 0 -1 125 0 125 109 0 c79 0 119 -4 143 -16z" style="fill: rgb(216, 117, 234);"/>
    <path d="M14333 3530 l0 -460 314 0 314 0 -3 78 -3 77 -207 3 -208 2 0 380 0 380 -103 0 -104 0 0 -460z" style="fill: rgb(236, 13, 11);"/>
    <path d="M6837 3809 c-56 -13 -128 -53 -164 -91 -18 -18 -45 -60 -60 -93 -26 -56 -28 -69 -28 -180 1 -151 22 -213 99 -291 70 -69 128 -89 261 -88 88 0 108 3 162 28 60 27 126 86 152 135 15 26 12 27 -90 35 -74 5 -78 5 -94 -20 -34 -52 -139 -71 -205 -36 -42 23 -78 83 -86 146 l-7 46 253 0 253 0 -6 74 c-19 222 -148 349 -350 345 -29 -1 -69 -5 -90 -10z m173 -130 c42 -24 65 -58 79 -117 l9 -42 -159 0 c-178 0 -172 -3 -145 73 35 96 130 134 216 86z" style="fill: rgb(181, 16, 16);"/>
    <path d="M7797 3809 c-56 -13 -128 -53 -164 -91 -18 -18 -45 -60 -60 -93 -26 -56 -28 -69 -28 -180 1 -151 22 -213 99 -291 70 -69 128 -89 261 -88 88 0 108 3 162 28 60 27 126 86 152 135 15 26 12 27 -90 35 -74 5 -78 5 -94 -20 -34 -52 -139 -71 -205 -36 -42 23 -78 83 -86 146 l-7 46 253 0 253 0 -6 74 c-19 222 -148 349 -350 345 -29 -1 -69 -5 -90 -10z m173 -130 c42 -24 65 -58 79 -117 l9 -42 -159 0 c-178 0 -172 -3 -145 73 35 96 130 134 216 86z" style="fill: rgb(245, 97, 98);"/>
    <path d="M11753 3806 c-59 -19 -99 -50 -130 -104 l-28 -47 -3 78 -3 77 -96 0 c-94 0 -95 0 -89 -22 3 -13 6 -179 6 -370 l0 -348 95 0 95 0 0 221 c0 241 6 277 52 333 54 65 153 69 195 8 16 -24 18 -55 21 -294 l3 -268 95 0 95 0 -3 298 c-3 284 -4 299 -25 338 -53 99 -160 137 -280 100z" style="fill: rgb(224, 27, 122);"/>
    <path d="M 12582 3809 C 12441 3782 12361 3672 12390 3549 C 12403 3496 12440 3451 12493 3423 C 12510 3414 12584 3393 12657 3375 C 12731 3357 12802 3335 12815 3326 C 12848 3304 12857 3266 12836 3234 C 12813 3199 12782 3190 12689 3190 C 12597 3190 12558 3205 12534 3251 C 12522 3275 12514 3281 12497 3277 C 12485 3274 12449 3268 12418 3265 C 12349 3256 12346 3246 12388 3179 C 12442 3095 12572 3051 12734 3063 C 12920 3076 13020 3154 13020 3284 C 13020 3424 12949 3477 12688 3534 C 12598 3554 12560 3579 12560 3619 C 12560 3669 12591 3685 12690 3685 C 12784 3685 12812 3673 12831 3623 C 12839 3602 12843 3601 12902 3607 C 12937 3610 12975 3616 12988 3619 L 13010 3625 L 12984 3678 C 12953 3741 12896 3783 12814 3805 C 12752 3821 12652 3823 12582 3809 Z" style="fill: rgb(34, 212, 61);"/>
    <path d="M1875 3798 c-73 -40 -73 -138 0 -173 62 -29 135 17 135 86 0 36 -28 77 -61 88 -39 13 -49 13 -74 -1z" style="fill: rgb(236, 12, 12);"/>
    <path d="M5563 3783 c2 -16 31 -182 63 -370 l58 -343 82 0 82 0 50 158 c28 86 54 169 57 185 4 15 10 27 14 27 3 0 31 -83 61 -185 l55 -185 82 0 c69 0 82 3 87 18 5 16 126 705 126 716 0 3 -34 6 -75 6 -69 0 -75 -2 -80 -22 -3 -13 -21 -133 -40 -267 -19 -134 -36 -245 -38 -247 -1 -2 -27 78 -57 176 l-53 180 -67 0 -66 0 -54 -172 c-61 -197 -69 -217 -70 -171 0 32 -56 459 -65 501 -5 20 -11 22 -81 22 l-76 0 5 -27z" style="fill: rgb(33, 219, 232);"/>
    <path d="M10442 3528 c5 -321 11 -351 78 -412 106 -96 269 -67 351 62 l29 46 0 -40 c0 -21 3 -56 6 -76 l7 -38 87 0 87 0 -1 370 -1 370 -97 0 -97 0 -3 -242 c-3 -223 -5 -246 -24 -282 -11 -22 -33 -49 -48 -60 -35 -27 -97 -27 -127 -1 -48 43 -53 73 -57 338 l-4 247 -95 0 -95 0 4 -282z" style="fill: rgb(30, 110, 202);"/>
    <path d="M1995 3226 c-75 -33 -70 -150 8 -175 95 -32 166 76 100 148 -34 37 -68 45 -108 27z" style="fill: rgb(220, 230, 19);"/>
    <path d="M3953 2873 c-29 -6 -73 -58 -73 -88 0 -87 105 -131 165 -70 27 26 34 80 14 117 -9 16 -71 52 -81 47 -2 -1 -13 -4 -25 -6z" style="fill: rgb(31, 219, 232);"/>
    <path d="M2344 2765 c-55 -38 -51 -124 5 -158 101 -60 197 65 114 148 -30 29 -86 34 -119 10z" style="fill: rgb(224, 27, 122);"/>
    <path d="M3403 2576 c-61 -53 -21 -158 61 -158 92 0 135 93 74 160 -30 31 -97 31 -135 -2z" style="fill: rgb(245, 98, 98);"/>
    <path d="M2843 2552 c-71 -56 -33 -172 57 -172 49 0 100 49 100 95 0 72 -100 122 -157 77z" style="fill: rgb(216, 117, 234);"/>
  </g>
</svg>